<svg xmlns="http://www.w3.org/2000/svg" width="750.9983" height="727.77798" style=""><rect id="backgroundrect" width="100%" height="100%" x="0" y="0" fill="none" stroke="none"/><g class="currentLayer" style=""><title>Layer 1</title><g class=""><path d="M506.5605893041994,172.94721474123952 h-3.99878 V63.40188474123951 a63.40188,63.40188 0 0 0 -63.4018,-63.4019 H207.07327930419945 a63.40183,63.40183 0 0 0 -63.402,63.40171 V664.3761047412395 A63.40181,63.40181 0 0 0 207.07314930419943,727.7779747412395 H439.1597093041994 a63.40185,63.40185 0 0 0 63.402,-63.40167 V250.9234747412395 h3.99884 z" fill="#3f3d56" id="svg_1" class=""/><path d="M441.7180593041994,16.494974741239503 h-30.295 a22.49487,22.49487 0 0 1 -20.82715,30.99053 H257.63645930419943 A22.4948,22.4948 0 0 1 236.80930930419947,16.494974741239503 h-28.2956 a47.34782,47.34782 0 0 0 -47.34784,47.34774 V663.9352547412395 a47.34781,47.34781 0 0 0 47.34778,47.34784 H441.7180593041994 a47.34781,47.34781 0 0 0 47.34784,-47.34778 h0 V63.84269474123951 A47.34778,47.34778 0 0 0 441.7180593041994,16.494974741239503 z" fill="#fff" id="svg_2" class=""/><ellipse cx="373.4230283935549" cy="272.7078681738567" rx="42" ry="4" fill="#e6e6e6" id="svg_3" class=""/><polygon points="745.5629806518555,99.86798095703125 358.91100311279297,99.86798095703125 358.91100311279297,226.79898071289062 373.55699920654297,226.79898071289062 373.55699920654297,259.9969787597656 406.75402069091797,226.79898071289062 745.5629806518555,226.79898071289062 745.5629806518555,99.86798095703125 " fill="#0288d1" id="svg_4" class=""/><rect x="401.9462217529299" y="142.8516670019817" width="175.82080078125" height="5.335720062255859" fill="#fff" id="svg_5" class=""/><rect x="401.9462217529299" y="161.30961377932545" width="306.4408874511719" height="5.335720062255859" fill="#fff" id="svg_6" class=""/><rect x="401.9462217529299" y="179.76754529788013" width="306.14080810546875" height="5.335720062255859" fill="#fff" id="svg_7" class=""/><polygon points="646.7839889526367,482.7079772949219 338.14501190185547,482.7079772949219 338.14501190185547,584.0289916992188 349.8359909057617,584.0289916992188 349.8359909057617,610.5280151367188 376.3350143432617,584.0289916992188 646.7839889526367,584.0289916992188 646.7839889526367,482.7079772949219 " fill="#0288d1" id="svg_8" class=""/><rect x="372.49669782714864" y="517.0190864355754" width="140.3462371826172" height="4.259160041809082" fill="#fff" id="svg_9" class=""/><rect x="372.49669782714864" y="531.7529121191692" width="244.61172485351562" height="4.259160041809082" fill="#fff" id="svg_10" class=""/><rect x="372.49669782714864" y="546.4866767676067" width="244.3721923828125" height="4.25915002822876" fill="#fff" id="svg_11" class=""/><ellipse cx="349.7284483154299" cy="620.6747871191692" rx="33.525848388671875" ry="3.1929399967193604" fill="#e6e6e6" id="svg_12" class=""/><ellipse cx="257.4230283935549" cy="420.7078681738567" rx="42" ry="4" fill="#e6e6e6" id="svg_13" class=""/><polygon points="0,298.89398193359375 271.9070053100586,298.89398193359375 271.9070053100586,388.156982421875 261.6069869995117,388.156982421875 261.6069869995117,411.5019836425781 238.2619857788086,388.156982421875 0,388.156982421875 0,298.89398193359375 " fill="#0288d1" id="svg_14" class=""/><rect x="28.203454418945512" y="328.4352851660442" width="123.64299774169922" height="3.7522599697113037" fill="#fff" id="svg_15" class=""/><rect x="28.203454418945512" y="341.4155097754192" width="215.49937438964844" height="3.7522599697113037" fill="#fff" id="svg_16" class=""/><rect x="28.203454418945512" y="354.3957649023723" width="215.28834533691406" height="3.7522599697113037" fill="#fff" id="svg_17" class=""/></g></g></svg>