<svg id="a4f494f4-8afa-4254-8a66-0d2403d0190b" data-name="Layer 1" xmlns="http://www.w3.org/2000/svg" width="847.99738" height="727.30542" viewBox="0 0 847.99738 727.30542"><path d="M224.12631,86.34729H600.44467a48.17928,48.17928,0,0,1,48.125,48.12512V340.3482a48.17923,48.17923,0,0,1-48.125,48.12506H224.12631a48.17923,48.17923,0,0,1-48.125-48.12506V134.47241A48.17928,48.17928,0,0,1,224.12631,86.34729Z" transform="translate(-176.00131 -86.34729)" fill="#f2f2f2"/><path d="M224.12582,100.20148H600.44467a34.30948,34.30948,0,0,1,34.271,34.27093V340.3482a34.30947,34.30947,0,0,1-34.271,34.27088H224.12582a34.30936,34.30936,0,0,1-34.2705-34.27088V134.47241A34.30936,34.30936,0,0,1,224.12582,100.20148Z" transform="translate(-176.00131 -86.34729)" fill="#fff"/><path d="M227.79792,462.18379a8.63,8.63,0,0,1-3.30688-.66895,8.3678,8.3678,0,0,1-5.24707-7.85254V382.49238L314.12653,379.3l-80.37231,80.37256A8.38269,8.38269,0,0,1,227.79792,462.18379Z" transform="translate(-176.00131 -86.34729)" fill="#f2f2f2"/><rect x="73.82571" y="65.06299" width="324" height="41.02752" rx="20.51374" fill="#f2f2f2"/><rect x="74.28418" y="130.54923" width="324" height="41.02752" rx="20.51374" fill="#f2f2f2"/><rect x="74.74265" y="196.03547" width="324" height="41.02752" rx="20.51374" fill="#f2f2f2"/><path d="M818.36162,191.34729H442.04326a48.17928,48.17928,0,0,0-48.125,48.12512V445.3482a48.17923,48.17923,0,0,0,48.125,48.12506H818.36162a48.17923,48.17923,0,0,0,48.125-48.12506V239.47241A48.17928,48.17928,0,0,0,818.36162,191.34729Z" transform="translate(-176.00131 -86.34729)" fill="#e6e6e6"/><path d="M818.36211,205.20148H442.04326a34.30948,34.30948,0,0,0-34.271,34.27093V445.3482a34.30947,34.30947,0,0,0,34.271,34.27088H818.36211a34.30937,34.30937,0,0,0,34.27051-34.27088V239.47241A34.30937,34.30937,0,0,0,818.36211,205.20148Z" transform="translate(-176.00131 -86.34729)" fill="#fff"/><path d="M789.73371,564.67256,709.3614,484.3l94.88257,3.19238V558.6623a8.36781,8.36781,0,0,1-5.24707,7.85254,8.63008,8.63008,0,0,1-3.30689.66895A8.38269,8.38269,0,0,1,789.73371,564.67256Z" transform="translate(-176.00131 -86.34729)" fill="#e6e6e6"/><circle cx="371.20113" cy="256.06299" r="26" fill="#00b0ff"/><circle cx="454.20113" cy="256.06299" r="26" fill="#00b0ff"/><circle cx="537.20113" cy="256.06299" r="26" fill="#00b0ff"/></svg>