<?xml version="1.0" standalone="no"?>
<!DOCTYPE svg PUBLIC "-//W3C//DTD SVG 20010904//EN"
 "http://www.w3.org/TR/2001/REC-SVG-20010904/DTD/svg10.dtd">
<svg version="1.0" xmlns="http://www.w3.org/2000/svg"
 width="900.000000pt" height="897.000000pt" viewBox="0 0 900.000000 897.000000"
 preserveAspectRatio="xMidYMid meet">
<metadata>
Created by potrace 1.10, written by Peter Selinger 2001-2011
</metadata>
<g transform="translate(0.000000,897.000000) scale(0.100000,-0.100000)"
fill="#000000" stroke="none">
<path d="M4098 8487 c-15 -12 -32 -35 -37 -50 -7 -17 -11 -129 -11 -290 0
-242 2 -264 20 -294 37 -62 44 -63 409 -63 283 0 335 2 364 16 65 31 67 40 67
353 l0 280 -35 36 -36 35 -357 0 c-353 -1 -357 -1 -384 -23z"/>
<path d="M4180 7741 c-16 -31 -14 -516 3 -529 9 -8 110 -11 304 -11 253 0 292
2 297 15 3 9 6 129 6 268 0 183 -3 255 -12 264 -9 9 -89 12 -300 12 -274 0
-288 -1 -298 -19z"/>
<path d="M6253 7642 c-12 -9 -31 -35 -43 -57 -11 -22 -25 -47 -30 -55 -12 -19
-59 -102 -99 -173 -17 -31 -31 -65 -31 -76 0 -11 16 -33 35 -48 39 -31 44 -43
17 -43 -15 0 -64 -63 -85 -110 -4 -8 -16 -28 -26 -45 -11 -16 -34 -57 -51 -90
-42 -79 -44 -81 -77 -65 -102 48 -256 107 -338 130 -16 5 -43 13 -60 18 -260
89 -648 147 -980 147 -344 -1 -730 -58 -990 -147 -16 -5 -43 -13 -60 -18 -49
-13 -185 -64 -280 -104 -162 -69 -467 -237 -600 -332 -106 -76 -151 -109 -175
-130 -14 -13 -63 -55 -110 -94 -153 -130 -354 -345 -491 -525 -58 -76 -168
-243 -199 -300 -6 -11 -26 -47 -45 -80 -33 -56 -121 -233 -150 -300 -28 -64
-39 -91 -52 -125 -20 -52 -82 -237 -98 -295 -8 -27 -21 -74 -29 -104 -9 -29
-16 -62 -16 -72 0 -11 -6 -45 -14 -77 -91 -359 -91 -985 0 -1344 8 -32 14 -66
14 -77 0 -10 7 -43 16 -72 8 -30 21 -76 29 -104 26 -90 107 -328 124 -363 4
-9 15 -33 23 -52 28 -63 149 -304 169 -335 10 -16 22 -37 25 -45 13 -27 156
-244 203 -305 301 -397 720 -755 1116 -956 33 -16 67 -34 75 -39 20 -13 155
-73 252 -114 18 -8 50 -21 71 -30 21 -9 46 -16 55 -16 10 0 22 -4 27 -8 10 -9
98 -37 210 -67 33 -9 75 -21 92 -26 18 -6 54 -14 80 -19 27 -4 73 -13 103 -19
394 -76 848 -76 1240 0 30 6 78 15 106 19 28 4 61 13 72 19 11 6 31 11 43 11
22 0 35 4 219 65 155 51 194 65 205 76 5 5 15 9 22 9 21 0 230 99 348 165 33
19 69 39 80 45 82 45 282 182 380 262 120 96 158 131 295 268 134 134 167 170
240 265 30 39 57 72 60 75 20 18 172 242 200 295 6 11 19 34 30 50 30 46 173
340 209 430 18 44 39 95 47 113 8 18 14 39 14 47 0 8 6 29 14 47 13 31 24 67
60 193 30 108 68 309 90 480 11 83 16 202 16 385 0 256 -9 380 -42 555 -6 33
-14 80 -18 105 -14 91 -80 337 -106 398 -8 18 -14 39 -14 47 0 8 -6 29 -14 47
-8 18 -37 88 -65 155 -57 135 -161 342 -219 435 -9 15 -35 55 -56 90 -51 81
-203 284 -280 373 -61 71 -245 257 -324 328 -63 57 -253 207 -261 207 -4 0
-16 8 -27 18 -10 10 -49 37 -85 61 l-67 44 26 46 c14 25 45 79 69 119 24 41
43 77 43 82 0 4 7 13 15 20 8 7 15 28 15 46 0 33 21 47 35 24 10 -16 58 -11
81 8 12 9 44 55 70 102 27 47 54 92 59 102 42 71 75 140 75 155 -1 30 -31 59
-110 105 -41 24 -82 47 -90 51 -8 4 -24 13 -35 20 -116 70 -207 117 -226 117
-13 0 -34 -8 -46 -18z m-88 -463 c10 -14 1 -21 -19 -13 -9 3 -13 10 -10 15 7
12 21 11 29 -2z m100 -70 c-3 -4 -12 -6 -20 -3 -8 4 -13 10 -10 15 3 4 12 6
20 3 8 -4 13 -10 10 -15z m53 -28 c3 -8 -1 -12 -9 -9 -7 2 -15 10 -17 17 -3 8
1 12 9 9 7 -2 15 -10 17 -17z m57 -32 c-3 -4 -12 -6 -20 -3 -8 4 -13 10 -10
15 3 4 12 6 20 3 8 -4 13 -10 10 -15z m55 -31 c0 -6 -7 -7 -16 -4 -9 3 -18 6
-20 6 -3 0 -3 4 1 10 7 11 35 2 35 -12z m-1998 -527 l3 -156 43 -3 c23 -2 43
-2 44 0 0 2 4 75 7 163 l6 160 140 -2 c77 -2 181 -10 230 -18 135 -23 244 -46
300 -61 129 -37 162 -47 193 -60 18 -8 39 -14 46 -14 25 0 275 -111 399 -176
15 -9 27 -24 27 -34 0 -10 -34 -76 -75 -145 -41 -70 -75 -131 -75 -135 0 -4
18 -17 40 -29 l39 -20 33 57 c18 31 38 66 45 77 7 11 17 29 23 40 6 11 19 34
30 50 11 17 23 36 26 43 12 24 22 19 199 -102 39 -27 72 -51 75 -55 3 -4 37
-32 75 -63 73 -57 258 -237 334 -323 98 -111 281 -366 281 -390 0 -11 -65 -55
-130 -88 -8 -4 -28 -16 -45 -27 -16 -11 -39 -24 -50 -29 -49 -21 -55 -60 -16
-95 18 -16 22 -15 82 22 35 21 71 41 79 45 8 4 29 16 45 27 65 41 81 47 97 36
15 -11 148 -275 148 -294 0 -6 6 -23 14 -39 13 -26 22 -49 56 -143 6 -19 16
-51 20 -70 5 -19 18 -66 30 -105 11 -38 25 -92 29 -120 5 -27 14 -75 20 -105
25 -129 42 -291 39 -370 l-3 -85 -160 -5 -160 -5 0 -45 0 -45 160 -5 160 -5 3
-85 c4 -114 -25 -335 -70 -520 -6 -25 -14 -61 -19 -80 -22 -93 -77 -258 -105
-313 -8 -16 -14 -33 -14 -38 0 -11 -83 -192 -101 -219 -5 -8 -14 -25 -19 -38
-6 -13 -16 -30 -24 -37 -15 -15 -31 -10 -101 35 -16 11 -37 23 -45 27 -8 4
-44 24 -79 45 -60 37 -64 38 -82 22 -39 -35 -33 -74 16 -95 11 -5 34 -18 50
-29 17 -11 39 -24 50 -30 68 -35 120 -70 123 -83 4 -17 -32 -72 -152 -232
-104 -139 -132 -171 -282 -320 -131 -130 -262 -238 -399 -329 -102 -68 -118
-75 -129 -53 -3 6 -15 26 -26 42 -11 17 -24 39 -30 50 -6 11 -24 43 -41 70
-16 28 -35 60 -41 73 -6 12 -17 22 -23 22 -18 0 -75 -30 -75 -40 0 -4 34 -65
75 -136 43 -70 75 -136 73 -147 -2 -14 -32 -34 -103 -69 -55 -28 -113 -55
-130 -62 -16 -7 -46 -20 -65 -28 -57 -25 -164 -64 -215 -78 -16 -5 -43 -13
-60 -19 -71 -24 -245 -63 -385 -85 -103 -17 -334 -35 -362 -28 -16 4 -18 19
-18 146 0 184 -1 188 -54 184 l-41 -3 -5 -165 c-4 -138 -7 -165 -20 -165 -263
3 -666 75 -848 151 -18 8 -39 14 -47 14 -8 0 -31 7 -52 16 -21 9 -51 23 -68
30 -79 33 -223 101 -281 132 -13 7 -24 21 -24 30 0 9 32 70 70 135 39 66 70
129 70 141 0 22 -51 53 -69 42 -5 -3 -31 -43 -58 -88 -26 -46 -53 -92 -60
-103 -7 -11 -16 -30 -22 -41 -15 -33 -39 -36 -79 -12 -301 185 -643 519 -840
818 -70 106 -73 116 -39 130 12 6 36 19 52 29 17 11 47 29 67 40 72 39 119 72
125 87 7 19 -23 64 -43 64 -9 0 -57 -24 -107 -54 -151 -88 -169 -98 -178 -89
-15 16 -89 165 -134 270 -115 266 -191 571 -215 858 -6 72 -13 143 -15 159 -9
52 3 56 171 56 l154 0 6 25 c3 14 3 36 0 50 l-6 25 -154 0 c-168 0 -180 4
-171 56 2 16 9 88 15 159 18 211 64 437 127 620 14 39 27 79 30 90 16 63 175
409 194 420 6 4 38 -11 87 -40 113 -67 184 -105 196 -105 9 0 23 12 33 26 19
30 11 51 -28 72 -13 7 -37 22 -54 32 -16 11 -39 24 -50 30 -11 6 -33 19 -50
30 -16 11 -40 24 -52 30 -13 5 -23 15 -23 21 0 21 147 232 233 334 139 166
269 293 446 435 24 19 51 39 60 44 9 5 41 28 71 51 118 89 150 98 171 51 5
-11 23 -43 39 -71 17 -27 44 -76 62 -107 18 -32 37 -58 43 -58 29 0 65 26 65
47 0 12 -31 75 -70 139 -38 65 -70 126 -70 135 0 12 18 27 53 44 28 14 59 30
67 35 30 18 179 81 270 115 19 7 53 19 75 28 125 46 314 92 500 121 129 21
346 34 362 23 9 -6 13 -56 15 -166z"/>
<path d="M5939 5358 c-131 -94 -227 -162 -286 -203 -32 -22 -101 -71 -155
-110 -53 -38 -153 -110 -222 -160 -159 -114 -651 -480 -692 -514 -17 -14 -48
-39 -69 -56 -336 -258 -440 -411 -418 -610 13 -119 98 -228 212 -274 59 -23
183 -26 239 -5 171 65 282 185 617 669 23 33 64 92 91 130 66 96 554 827 554
831 0 1 20 32 45 68 25 37 45 68 45 70 0 3 20 34 45 70 25 37 45 70 45 75 0 5
6 14 14 20 16 13 28 51 17 51 -4 0 -41 -24 -82 -52z m-1376 -1368 c97 -43 149
-162 114 -260 -35 -97 -97 -142 -199 -142 -62 -1 -73 3 -118 33 -82 56 -115
147 -86 237 42 125 171 184 289 132z"/>
<path d="M4440 3840 c-22 -22 -26 -51 -10 -81 16 -29 73 -26 94 6 15 22 15 28
2 54 -24 45 -55 52 -86 21z"/>
</g>
</svg>
